<?xml version="1.0" encoding="UTF-8" standalone="no"?>
<!-- Created with Inkscape (http://www.inkscape.org/) -->

<svg
   xmlns:dc="http://purl.org/dc/elements/1.1/"
   xmlns:cc="http://creativecommons.org/ns#"
   xmlns:rdf="http://www.w3.org/1999/02/22-rdf-syntax-ns#"
   xmlns:svg="http://www.w3.org/2000/svg"
   xmlns="http://www.w3.org/2000/svg"
   xmlns:sodipodi="http://sodipodi.sourceforge.net/DTD/sodipodi-0.dtd"
   xmlns:inkscape="http://www.inkscape.org/namespaces/inkscape"
   width="128"
   height="128"
   viewBox="0 0 128 128"
   id="logo"
   version="1.1"
   inkscape:version="0.91 r13725"
   sodipodi:docname="logo.svg">
  <title
     id="title">vscode-guid</title>
  <defs
     id="logo-defs">
    <marker
       inkscape:stockid="Arrow2Mend"
       orient="auto"
       refY="0"
       refX="0"
       id="Arrow2Mend"
       style="overflow:visible"
       inkscape:isstock="true">
      <path
         id="Arrow2Mend-path"
         style="fill:#f1f1f1;fill-opacity:1;fill-rule:evenodd;stroke:#f1f1f1;stroke-width:0.625;stroke-linejoin:round;stroke-opacity:1"
         d="M 8.7185878,4.0337352 -2.2072895,0.01601326 8.7185884,-4.0017078 c -1.7454984,2.3720609 -1.7354408,5.6174519 -6e-7,8.035443 z"
         transform="scale(-0.6,-0.6)"
         inkscape:connector-curvature="0" />
    </marker>
  </defs>
  <sodipodi:namedview
     id="base"
     pagecolor="#000000"
     bordercolor="#666666"
     borderopacity="1.0"
     inkscape:pageopacity="0"
     inkscape:pageshadow="2"
     inkscape:zoom="3"
     inkscape:cx="86.048689"
     inkscape:cy="64.657895"
     inkscape:document-units="px"
     inkscape:current-layer="background"
     showgrid="false"
     units="px"
     showborder="false"
     inkscape:window-width="1440"
     inkscape:window-height="897"
     inkscape:window-x="-8"
     inkscape:window-y="-8"
     inkscape:window-maximized="1" />
  <metadata
     id="info">
    <rdf:RDF>
      <cc:Work
         rdf:about="">
        <dc:format>image/svg+xml</dc:format>
        <dc:type
           rdf:resource="http://purl.org/dc/dcmitype/StillImage" />
        <dc:title>vscode-guid</dc:title>
        <dc:publisher>
          <cc:Agent>
            <dc:title></dc:title>
          </cc:Agent>
        </dc:publisher>
        <cc:license
           rdf:resource="http://creativecommons.org/licenses/by/3.0/" />
      </cc:Work>
      <cc:License
         rdf:about="http://creativecommons.org/licenses/by/3.0/">
        <cc:permits
           rdf:resource="http://creativecommons.org/ns#Reproduction" />
        <cc:permits
           rdf:resource="http://creativecommons.org/ns#Distribution" />
        <cc:requires
           rdf:resource="http://creativecommons.org/ns#Notice" />
        <cc:requires
           rdf:resource="http://creativecommons.org/ns#Attribution" />
        <cc:permits
           rdf:resource="http://creativecommons.org/ns#DerivativeWorks" />
      </cc:License>
    </rdf:RDF>
  </metadata>
  <g
     inkscape:label="background"
     inkscape:groupmode="layer"
     id="background"
     transform="translate(0,-924.3622)">
    <rect
       style="fill:#252526;fill-opacity:1"
       id="background-area"
       width="128"
       height="128"
       x="0"
       y="924.36218" />
  </g>
  <g
     inkscape:groupmode="layer"
     id="quotes"
     inkscape:label="quotes">
    <g
       style="font-style:normal;font-variant:normal;font-weight:normal;font-stretch:normal;font-size:45px;line-height:125%;font-family:Hack;-inkscape-font-specification:'Hack, Normal';text-align:start;letter-spacing:0px;word-spacing:0px;writing-mode:lr-tb;text-anchor:start;fill:#000000;fill-opacity:1;stroke:none;stroke-width:1px;stroke-linecap:butt;stroke-linejoin:miter;stroke-opacity:1"
       id="quotes-test">
      <path
         d="m 9.7600911,84.861481 3.8232419,0 0,12.194824 -3.8232419,0 0,-12.194824 z m 8.4155269,0 3.823243,0 0,12.194824 -3.823243,0 0,-12.194824 z"
         style="font-style:normal;font-variant:normal;font-weight:normal;font-stretch:normal;font-size:45px;line-height:125%;font-family:Hack;-inkscape-font-specification:'Hack, Normal';text-align:start;writing-mode:lr-tb;text-anchor:start;fill:#f1f1f1;fill-opacity:1"
         id="path5399" />
      <path
         d="m 36.830404,84.861481 3.823242,0 0,12.194824 -3.823242,0 0,-12.194824 z m 8.415527,0 3.823242,0 0,12.194824 -3.823242,0 0,-12.194824 z"
         style="font-style:normal;font-variant:normal;font-weight:normal;font-stretch:normal;font-size:45px;line-height:125%;font-family:Hack;-inkscape-font-specification:'Hack, Normal';text-align:start;writing-mode:lr-tb;text-anchor:start;fill:#f1f1f1;fill-opacity:1"
         id="path5401" />
    </g>
  </g>
  <g
     inkscape:groupmode="layer"
     id="braces"
     inkscape:label="braces">
    <g
       style="font-style:normal;font-variant:normal;font-weight:normal;font-stretch:normal;font-size:45px;line-height:125%;font-family:Hack;-inkscape-font-specification:'Hack, Normal';text-align:start;letter-spacing:0px;word-spacing:0px;writing-mode:lr-tb;text-anchor:start;fill:#000000;fill-opacity:1;stroke:none;stroke-width:1px;stroke-linecap:butt;stroke-linejoin:miter;stroke-opacity:1"
       id="braces-text">
      <path
         d="m 88.951172,49.22575 q -5.449219,0 -7.316895,-1.625977 -1.867675,-1.604003 -1.867675,-6.481933 l 0,-5.251465 q 0,-3.295898 -1.164551,-4.592285 -1.186524,-1.274414 -4.262696,-1.274414 l -2.548828,0 0,-3.14209 2.548828,0 q 3.098145,0 4.262696,-1.252441 1.164551,-1.274415 1.164551,-4.54834 l 0,-5.273438 q 0,-4.87793 1.867675,-6.4819334 1.823731,-1.6040039 7.316895,-1.6040039 l 1.40625,0 0,3.1420903 -1.538086,0 q -3.076172,0 -3.999024,0.944824 -0.944824,0.944824 -0.944824,4.086914 l 0,5.449219 q 0,3.471679 -0.988769,5.009765 -0.483399,0.74707 -1.340332,1.296387 -0.856934,0.527344 -2.087403,0.812988 2.438965,0.593262 3.427735,2.15332 0.988769,1.560059 0.988769,4.987793 l 0,5.449219 q 0,3.14209 0.944824,4.086914 0.922852,0.944824 3.999024,0.944824 l 1.538086,0 0,3.164063 -1.40625,0 0,0 z"
         style="font-style:normal;font-variant:normal;font-weight:normal;font-stretch:normal;font-size:45px;line-height:125%;font-family:Hack;-inkscape-font-specification:'Hack, Normal';text-align:start;writing-mode:lr-tb;text-anchor:start;fill:#f1f1f1;fill-opacity:1"
         id="path5512" />
      <path
         d="m 101.80518,46.259441 1.49414,0 q 3.07617,0 4.04297,-0.966796 0.94482,-0.944825 0.94482,-4.064942 l 0,-5.449219 q 0,-3.427734 0.98877,-4.987793 0.98877,-1.560058 3.42773,-2.15332 -2.41699,-0.571289 -3.40576,-2.109375 -0.4834,-0.74707 -0.74707,-1.933594 -0.26367,-1.208496 -0.26367,-3.076172 l 0,-5.449218 q 0,-3.120117 -0.94482,-4.064942 -0.9668,-0.966797 -4.04297,-0.966797 l -1.49414,0 0,-3.1420894 1.3623,0 q 5.49316,0 7.3169,1.6040039 1.8457,1.6259765 1.8457,6.4819335 l 0,5.273438 q 0,1.713867 0.46142,2.8125 0.46143,1.07666 1.38428,1.735839 0.87891,0.637207 2.13135,0.944825 1.27441,0.307617 2.79053,0.307617 l 1.40625,0 0,3.14209 -1.40625,0 q -1.56006,0 -2.8125,0.32959 -1.25245,0.307617 -2.10938,0.944824 -0.92285,0.681152 -1.38428,1.779785 -0.46142,1.098633 -0.46142,2.8125 l 0,5.251465 q 0,4.877929 -1.8457,6.481933 -1.86768,1.625977 -7.3169,1.625977 l -1.3623,0 0,-3.164063 z"
         style="font-style:normal;font-variant:normal;font-weight:normal;font-stretch:normal;font-size:45px;line-height:125%;font-family:Hack;-inkscape-font-specification:'Hack, Normal';text-align:start;writing-mode:lr-tb;text-anchor:start;fill:#f1f1f1;fill-opacity:1"
         id="path5514" />
    </g>
  </g>
  <g
     inkscape:groupmode="layer"
     id="arrow"
     inkscape:label="arrow">
    <path
       style="fill:none;fill-opacity:1;fill-rule:evenodd;stroke:#f1f1f1;stroke-width:3;stroke-linecap:butt;stroke-linejoin:miter;stroke-miterlimit:4;stroke-dasharray:none;stroke-opacity:1;marker-end:url(#Arrow2Mend)"
       d="M 69.333333,28.666667 C 69.333333,28.666667 29.666666,26 29.666667,79"
       id="arrow-path"
       inkscape:connector-curvature="0"
       sodipodi:nodetypes="cc" />
  </g>
</svg>
