<?xml version="1.0" encoding="UTF-8" standalone="no"?>
<!-- Created with Inkscape (http://www.inkscape.org/) -->

<svg
   xmlns:dc="http://purl.org/dc/elements/1.1/"
   xmlns:cc="http://creativecommons.org/ns#"
   xmlns:rdf="http://www.w3.org/1999/02/22-rdf-syntax-ns#"
   xmlns:svg="http://www.w3.org/2000/svg"
   xmlns="http://www.w3.org/2000/svg"
   xmlns:sodipodi="http://sodipodi.sourceforge.net/DTD/sodipodi-0.dtd"
   xmlns:inkscape="http://www.inkscape.org/namespaces/inkscape"
   width="128"
   height="128"
   viewBox="0 0 128 128"
   id="logo"
   version="1.1"
   inkscape:version="0.92.3 (2405546, 2018-03-11)"
   sodipodi:docname="logo.svg">
  <title
     id="title">vscode-guid</title>
  <defs
     id="logo-defs">
    <clipPath
       clipPathUnits="userSpaceOnUse"
       id="circle_clip">
      <circle
         r="64"
         cy="64"
         cx="64"
         id="clip_circle"
         style="fill:#ffffff;fill-opacity:1;fill-rule:evenodd;stroke:#000000;stroke-width:1px;stroke-linecap:butt;stroke-linejoin:miter;stroke-opacity:1" />
    </clipPath>
  </defs>
  <sodipodi:namedview
     id="base"
     pagecolor="#000000"
     bordercolor="#666666"
     borderopacity="1.0"
     inkscape:pageopacity="0"
     inkscape:pageshadow="2"
     inkscape:zoom="1"
     inkscape:cx="64"
     inkscape:cy="64"
     inkscape:document-units="px"
     inkscape:current-layer="background"
     showgrid="false"
     units="px"
     showborder="false"
     inkscape:window-width="2160"
     inkscape:window-height="1346"
     inkscape:window-x="-11"
     inkscape:window-y="-11"
     inkscape:window-maximized="1"
     showguides="true"
     inkscape:guide-bbox="true"
     inkscape:pagecheckerboard="true">
    <sodipodi:guide
       position="64,66.666667"
       orientation="1,0"
       id="guide4934"
       inkscape:locked="false" />
    <sodipodi:guide
       position="50.032753,212.74849"
       orientation="1,0"
       id="guide4936"
       inkscape:locked="false" />
    <sodipodi:guide
       position="77.975082,190.33538"
       orientation="1,0"
       id="guide4938"
       inkscape:locked="false" />
    <sodipodi:guide
       position="-3.2607502,15.096066"
       orientation="0,1"
       id="guide4942"
       inkscape:locked="false" />
    <sodipodi:guide
       position="21.013724,65.094236"
       orientation="0,1"
       id="guide4962"
       inkscape:locked="false" />
    <inkscape:grid
       type="xygrid"
       id="grid860" />
  </sodipodi:namedview>
  <metadata
     id="info">
    <rdf:RDF>
      <cc:Work
         rdf:about="">
        <dc:format>image/svg+xml</dc:format>
        <dc:type
           rdf:resource="http://purl.org/dc/dcmitype/StillImage" />
        <dc:title>vscode-guid</dc:title>
        <dc:publisher>
          <cc:Agent>
            <dc:title />
          </cc:Agent>
        </dc:publisher>
        <cc:license
           rdf:resource="http://creativecommons.org/licenses/by/4.0/" />
        <dc:creator>
          <cc:Agent>
            <dc:title>Heath Stewart (heaths)</dc:title>
          </cc:Agent>
        </dc:creator>
      </cc:Work>
      <cc:License
         rdf:about="http://creativecommons.org/licenses/by/4.0/">
        <cc:permits
           rdf:resource="http://creativecommons.org/ns#Reproduction" />
        <cc:permits
           rdf:resource="http://creativecommons.org/ns#Distribution" />
        <cc:requires
           rdf:resource="http://creativecommons.org/ns#Notice" />
        <cc:requires
           rdf:resource="http://creativecommons.org/ns#Attribution" />
        <cc:permits
           rdf:resource="http://creativecommons.org/ns#DerivativeWorks" />
      </cc:License>
    </rdf:RDF>
  </metadata>
  <g
     inkscape:groupmode="layer"
     id="circle"
     inkscape:label="circle"
     style="display:inline">
    <circle
       style="fill:#3c78ff;fill-opacity:1;fill-rule:evenodd;stroke:none;stroke-width:4;stroke-linecap:butt;stroke-linejoin:miter;stroke-miterlimit:4;stroke-dasharray:none;stroke-opacity:1"
       id="outer_circle"
       cx="64"
       cy="64"
       r="64" />
  </g>
  <g
     inkscape:groupmode="layer"
     id="background"
     inkscape:label="background"
     style="display:inline">
    <path
       style="fill:#ffffff;fill-opacity:1;stroke:#000000;stroke-width:4;stroke-linecap:round;stroke-miterlimit:4;stroke-dasharray:none;stroke-opacity:1"
       clip-path="url(#circle_clip)"
       d="M -16.833336,36.833336 H 144.83334 V 91.166668 H 78.228728 L 64,112.90393 50.122598,91.166668 h -66.955934 z"
       id="box"
       inkscape:connector-curvature="0"
       sodipodi:nodetypes="cccccccc" />
  </g>
  <g
     style="display:inline"
     inkscape:label="border"
     id="border"
     inkscape:groupmode="layer">
    <circle
       r="64"
       cy="64"
       cx="64"
       id="inner_circle"
       style="fill:none;fill-opacity:1;fill-rule:evenodd;stroke:#000000;stroke-width:4;stroke-linecap:butt;stroke-linejoin:miter;stroke-miterlimit:4;stroke-dasharray:none;stroke-opacity:1" />
  </g>
  <g
     inkscape:groupmode="layer"
     id="text"
     inkscape:label="text"
     style="display:inline">
    <path
       style="font-style:normal;font-variant:normal;font-weight:bold;font-stretch:normal;font-size:medium;line-height:125%;font-family:Consolas;-inkscape-font-specification:'Consolas, Bold';font-variant-ligatures:normal;font-variant-caps:normal;font-variant-numeric:normal;font-feature-settings:normal;text-align:start;letter-spacing:0px;word-spacing:0px;writing-mode:lr-tb;text-anchor:start;fill:#000000;fill-opacity:1;stroke:none;stroke-width:1px;stroke-linecap:butt;stroke-linejoin:miter;stroke-opacity:1"
       inkscape:connector-curvature="0"
       id="open_brace"
       d="m 17.360677,80.907549 q -3.773437,0 -5.632812,-1.822916 -1.8593753,-1.804688 -1.8593753,-5.742188 v -4.630208 q 0,-1.877604 -0.8385416,-2.825521 Q 8.1914064,64.9388 6.2408857,64.9388 H 5.0924482 v -3.445313 h 1.1484375 q 0.9843749,0 1.6770833,-0.20052 0.6927083,-0.21875 1.1302083,-0.65625 0.4374999,-0.4375 0.6197916,-1.111979 0.2005208,-0.692709 0.2005208,-1.640625 v -3.208334 q 0,-1.877604 0.4192713,-3.299479 0.4375,-1.421875 1.348958,-2.369791 0.911458,-0.947917 2.315104,-1.421875 1.421875,-0.492188 3.408854,-0.492188 h 1.53125 v 3.427083 h -1.148438 q -0.875,0 -1.585937,0.21875 -0.692708,0.200521 -1.203125,0.67448 -0.510417,0.473958 -0.783854,1.257812 -0.273438,0.765625 -0.273438,1.914063 v 3.190104 q 0,1.367187 -0.236979,2.333333 -0.21875,0.966146 -0.692708,1.622396 -0.473958,0.63802 -1.203125,1.002604 -0.729167,0.346354 -1.713542,0.492187 1.950521,0.21875 2.898438,1.53125 0.947916,1.294271 0.947916,3.992188 v 4.630208 q 0,1.184896 0.273438,1.96875 0.273437,0.783854 0.783854,1.257812 0.510417,0.473958 1.203125,0.674479 0.710937,0.200521 1.585937,0.200521 h 1.148438 v 3.427083 z" />
    <path
       style="font-style:normal;font-variant:normal;font-weight:bold;font-stretch:normal;font-size:medium;line-height:125%;font-family:Consolas;-inkscape-font-specification:'Consolas, Bold';font-variant-ligatures:normal;font-variant-caps:normal;font-variant-numeric:normal;font-feature-settings:normal;text-align:start;letter-spacing:0px;word-spacing:0px;writing-mode:lr-tb;text-anchor:start;fill:#000000;fill-opacity:1;stroke:none;stroke-width:1px;stroke-linecap:butt;stroke-linejoin:miter;stroke-opacity:1"
       inkscape:connector-curvature="0"
       id="text_g"
       d="m 33.25651,65.822917 v -3.700521 h 8.476563 v 12.705729 q -1.640625,0.765625 -3.427084,1.130208 -1.786458,0.364583 -3.882812,0.364583 -2.479166,0 -4.466146,-0.765625 -1.96875,-0.765625 -3.354166,-2.278646 -1.385417,-1.51302 -2.132813,-3.755208 -0.729166,-2.242187 -0.729166,-5.195312 0,-2.971354 0.765625,-5.322917 0.783854,-2.351562 2.260416,-3.973958 1.494792,-1.640625 3.645834,-2.497395 2.16927,-0.856771 4.940104,-0.856771 1.640625,0 3.190104,0.291666 1.567708,0.273438 3.117187,0.747396 v 4.429688 Q 40.311198,56.507813 38.670573,56.106771 37.048177,55.6875 35.389323,55.6875 q -1.677083,0 -2.971354,0.583334 -1.276042,0.583333 -2.151042,1.658854 -0.856771,1.07552 -1.3125,2.643229 -0.4375,1.567708 -0.4375,3.536458 0,1.895833 0.346354,3.427083 0.346355,1.513021 1.11198,2.588542 0.783854,1.057291 2.005208,1.622396 1.221354,0.565104 2.971354,0.565104 0.419271,0 0.729167,-0.01823 0.309895,-0.03646 0.583333,-0.09114 0.273437,-0.05469 0.510417,-0.127604 0.255208,-0.07292 0.528645,-0.164063 v -6.088541 z" />
    <path
       style="font-style:normal;font-variant:normal;font-weight:bold;font-stretch:normal;font-size:medium;line-height:125%;font-family:Consolas;-inkscape-font-specification:'Consolas, Bold';font-variant-ligatures:normal;font-variant-caps:normal;font-variant-numeric:normal;font-feature-settings:normal;text-align:start;letter-spacing:0px;word-spacing:0px;writing-mode:lr-tb;text-anchor:start;fill:#000000;fill-opacity:1;stroke:none;stroke-width:1px;stroke-linecap:butt;stroke-linejoin:miter;stroke-opacity:1"
       inkscape:connector-curvature="0"
       id="text_u"
       d="m 62.386719,66.934897 q 0,2.278645 -0.619792,4.010416 -0.601563,1.713542 -1.75,2.861979 -1.130208,1.148438 -2.770833,1.731771 -1.640625,0.583333 -3.682292,0.583333 -2.296875,0 -3.9375,-0.583333 -1.640625,-0.583333 -2.661458,-1.677083 -1.020833,-1.09375 -1.476562,-2.661459 -0.45573,-1.567708 -0.45573,-3.518229 V 51.877605 h 4.484375 v 15.53125 q 0,1.203125 0.200521,2.132812 0.21875,0.929688 0.729167,1.585938 0.528646,0.63802 1.3125,0.966145 0.783854,0.328125 1.96875,0.328125 1.111979,0 1.877604,-0.273438 0.765625,-0.291667 1.276041,-0.911457 0.510417,-0.638021 0.765625,-1.622396 0.255209,-0.984375 0.255209,-2.388021 V 51.877605 h 4.484375 z" />
    <path
       style="font-style:normal;font-variant:normal;font-weight:bold;font-stretch:normal;font-size:medium;line-height:125%;font-family:Consolas;-inkscape-font-specification:'Consolas, Bold';font-variant-ligatures:normal;font-variant-caps:normal;font-variant-numeric:normal;font-feature-settings:normal;text-align:start;letter-spacing:0px;word-spacing:0px;writing-mode:lr-tb;text-anchor:start;fill:#000000;fill-opacity:1;stroke:none;stroke-width:1px;stroke-linecap:butt;stroke-linejoin:miter;stroke-opacity:1"
       inkscape:connector-curvature="0"
       id="text_i"
       d="M 66.74349,55.751303 V 52.08724 h 15.057291 v 3.664063 h -5.25 V 72.21224 h 5.25 v 3.70052 H 66.74349 v -3.70052 h 5.25 V 55.751303 Z" />
    <path
       style="font-style:normal;font-variant:normal;font-weight:bold;font-stretch:normal;font-size:medium;line-height:125%;font-family:Consolas;-inkscape-font-specification:'Consolas, Bold';font-variant-ligatures:normal;font-variant-caps:normal;font-variant-numeric:normal;font-feature-settings:normal;text-align:start;letter-spacing:0px;word-spacing:0px;writing-mode:lr-tb;text-anchor:start;fill:#000000;fill-opacity:1;stroke:none;stroke-width:1px;stroke-linecap:butt;stroke-linejoin:miter;stroke-opacity:1"
       inkscape:connector-curvature="0"
       id="text_d"
       d="m 104.13151,63.699219 q 0,2.770833 -0.69271,5.03125 -0.67448,2.260417 -2.13281,3.864583 -1.440105,1.585938 -3.700521,2.460938 -2.260417,0.85677 -5.414063,0.85677 H 86.139323 V 52.08724 h 7.054688 q 2.734374,0 4.776041,0.692709 2.059898,0.674479 3.427088,2.096354 1.36718,1.421875 2.04166,3.609375 0.69271,2.1875 0.69271,5.213541 z m -4.8125,0.291667 q 0,-1.932292 -0.309896,-3.445313 -0.309895,-1.51302 -1.057291,-2.552083 -0.729167,-1.057291 -1.96875,-1.604166 -1.239583,-0.546875 -3.080729,-0.546875 h -2.278646 v 16.315103 h 1.96875 q 3.299479,0 5.013021,-1.96875 1.713541,-1.96875 1.713541,-6.197916 z" />
    <path
       style="font-style:normal;font-variant:normal;font-weight:bold;font-stretch:normal;font-size:medium;line-height:125%;font-family:Consolas;-inkscape-font-specification:'Consolas, Bold';font-variant-ligatures:normal;font-variant-caps:normal;font-variant-numeric:normal;font-feature-settings:normal;text-align:start;letter-spacing:0px;word-spacing:0px;writing-mode:lr-tb;text-anchor:start;fill:#000000;fill-opacity:1;stroke:none;stroke-width:1px;stroke-linecap:butt;stroke-linejoin:miter;stroke-opacity:1"
       inkscape:connector-curvature="0"
       id="close_brace"
       d="m 110.62109,47.092446 q 3.79167,0 5.65105,1.822917 1.85937,1.804687 1.85937,5.760416 v 3.0625 q 0,1.877604 0.82031,2.825521 0.83854,0.929687 2.78907,0.929687 h 1.16666 V 64.9388 h -1.16666 q -0.98438,0 -1.67709,0.21875 -0.69271,0.200521 -1.13021,0.638021 -0.41927,0.4375 -0.61979,1.130208 -0.18229,0.674479 -0.18229,1.622396 v 4.79427 q 0,1.877604 -0.4375,3.28125 -0.41927,1.421875 -1.33073,2.369792 -0.91146,0.947916 -2.33333,1.421875 -1.42188,0.492187 -3.40886,0.492187 h -1.53125 v -3.427083 h 1.16667 q 0.875,0 1.56771,-0.200521 0.71094,-0.200521 1.22135,-0.692708 0.51042,-0.473958 0.78386,-1.257813 0.27343,-0.765624 0.27343,-1.914062 v -4.739583 q 0,-1.367188 0.21875,-2.333333 0.23698,-0.984375 0.69271,-1.622396 0.47396,-0.65625 1.20313,-1.002604 0.72916,-0.346354 1.71354,-0.492188 -1.95052,-0.236979 -2.89844,-1.53125 -0.92969,-1.3125 -0.92969,-4.010416 v -3.044271 q 0,-1.184896 -0.27343,-1.96875 -0.27344,-0.802083 -0.78386,-1.276042 -0.51041,-0.473958 -1.22135,-0.674479 -0.69271,-0.200521 -1.56771,-0.200521 h -1.16667 v -3.427083 z" />
  </g>
</svg>
